<svg width="16" height="16" viewBox="0 0 16 16" fill="none" xmlns="http://www.w3.org/2000/svg">
<path d="M12.1999 3.80682C12.1382 3.74501 12.065 3.69598 11.9843 3.66253C11.9037 3.62907 11.8172 3.61185 11.7299 3.61185C11.6426 3.61185 11.5561 3.62907 11.4755 3.66253C11.3948 3.69598 11.3216 3.74501 11.2599 3.80682L7.99991 7.06015L4.73991 3.80015C4.67818 3.73843 4.60491 3.68947 4.52427 3.65606C4.44362 3.62266 4.35719 3.60547 4.26991 3.60547C4.18262 3.60547 4.09619 3.62266 4.01554 3.65606C3.9349 3.68947 3.86163 3.73843 3.7999 3.80015C3.73818 3.86187 3.68922 3.93514 3.65582 4.01579C3.62242 4.09643 3.60522 4.18286 3.60522 4.27015C3.60522 4.35744 3.62242 4.44387 3.65582 4.52451C3.68922 4.60515 3.73818 4.67843 3.7999 4.74015L7.05991 8.00015L3.7999 11.2601C3.73818 11.3219 3.68922 11.3951 3.65582 11.4758C3.62242 11.5564 3.60522 11.6429 3.60522 11.7301C3.60522 11.8174 3.62242 11.9039 3.65582 11.9845C3.68922 12.0652 3.73818 12.1384 3.7999 12.2001C3.86163 12.2619 3.9349 12.3108 4.01554 12.3442C4.09619 12.3776 4.18262 12.3948 4.26991 12.3948C4.35719 12.3948 4.44362 12.3776 4.52427 12.3442C4.60491 12.3108 4.67818 12.2619 4.73991 12.2001L7.99991 8.94015L11.2599 12.2001C11.3216 12.2619 11.3949 12.3108 11.4755 12.3442C11.5562 12.3776 11.6426 12.3948 11.7299 12.3948C11.8172 12.3948 11.9036 12.3776 11.9843 12.3442C12.0649 12.3108 12.1382 12.2619 12.1999 12.2001C12.2616 12.1384 12.3106 12.0652 12.344 11.9845C12.3774 11.9039 12.3946 11.8174 12.3946 11.7301C12.3946 11.6429 12.3774 11.5564 12.344 11.4758C12.3106 11.3951 12.2616 11.3219 12.1999 11.2601L8.9399 8.00015L12.1999 4.74015C12.4532 4.48682 12.4532 4.06015 12.1999 3.80682Z" fill="white"/>
</svg>
