<svg width="16" height="16" viewBox="0 0 16 16" fill="none" xmlns="http://www.w3.org/2000/svg">
<path d="M13.4133 4.47333L11.5267 2.58667C11.152 2.21149 10.6436 2.00047 10.1133 2H5.88667C5.35641 2.00047 4.84805 2.21149 4.47333 2.58667L2.58667 4.47333C2.21149 4.84805 2.00047 5.35641 2 5.88667V12C2 12.5304 2.21071 13.0391 2.58579 13.4142C2.96086 13.7893 3.46957 14 4 14H12C12.5304 14 13.0391 13.7893 13.4142 13.4142C13.7893 13.0391 14 12.5304 14 12V5.88667C13.9995 5.35641 13.7885 4.84805 13.4133 4.47333ZM8 10.6667C7.29276 10.6667 6.61448 10.3857 6.11438 9.88562C5.61428 9.38552 5.33333 8.70724 5.33333 8C5.33333 7.82319 5.40357 7.65362 5.5286 7.5286C5.65362 7.40357 5.82319 7.33333 6 7.33333C6.17681 7.33333 6.34638 7.40357 6.4714 7.5286C6.59643 7.65362 6.66667 7.82319 6.66667 8C6.66667 8.35362 6.80714 8.69276 7.05719 8.94281C7.30724 9.19286 7.64638 9.33333 8 9.33333C8.35362 9.33333 8.69276 9.19286 8.94281 8.94281C9.19286 8.69276 9.33333 8.35362 9.33333 8C9.33333 7.82319 9.40357 7.65362 9.5286 7.5286C9.65362 7.40357 9.82319 7.33333 10 7.33333C10.1768 7.33333 10.3464 7.40357 10.4714 7.5286C10.5964 7.65362 10.6667 7.82319 10.6667 8C10.6667 8.70724 10.3857 9.38552 9.88562 9.88562C9.38552 10.3857 8.70724 10.6667 8 10.6667ZM4.27333 4.66667L5.41333 3.52667C5.54109 3.40484 5.71016 3.33579 5.88667 3.33333H10.1133C10.2898 3.33579 10.4589 3.40484 10.5867 3.52667L11.7267 4.66667H4.27333Z" fill="url(#paint0_linear)"/>
<defs>
<linearGradient id="paint0_linear" x1="8" y1="2" x2="8" y2="14" gradientUnits="userSpaceOnUse">
<stop stop-color="#FFB300"/>
<stop offset="1" stop-color="#FF9100"/>
</linearGradient>
</defs>
</svg>
