<svg width="24" height="24" viewBox="0 0 24 24" fill="none" xmlns="http://www.w3.org/2000/svg">
<path fill-rule="evenodd" clip-rule="evenodd" d="M10.5975 2.58215L9.09092 4.08735C8.96927 4.20905 8.80436 4.2776 8.63229 4.278H6.26183C5.16593 4.278 4.278 5.16593 4.278 6.26183V8.63229C4.278 8.80561 4.20868 8.9696 4.08735 9.09225L2.58082 10.5975C2.20892 10.9695 2 11.474 2 12C2 12.526 2.20892 13.0305 2.58082 13.4025L4.08735 14.9091C4.20905 15.0307 4.2776 15.1956 4.278 15.3677V17.7382C4.278 18.8341 5.16593 19.722 6.26183 19.722H8.63229C8.80561 19.722 8.9696 19.7913 9.09225 19.9126L10.5975 21.4192C10.9695 21.7911 11.474 22 12 22C12.526 22 13.0305 21.7911 13.4025 21.4192L14.9091 19.9126C15.0307 19.791 15.1956 19.7224 15.3677 19.722H17.7382C18.8341 19.722 19.722 18.8341 19.722 17.7382V15.3677C19.722 15.1944 19.7913 15.0304 19.9126 14.9077L21.4192 13.4025C21.7911 13.0305 22 12.526 22 12C22 11.474 21.7911 10.9695 21.4192 10.5975L19.9126 9.09092C19.791 8.96927 19.7224 8.80436 19.722 8.63229V6.26183C19.722 5.16593 18.8341 4.278 17.7382 4.278H15.3677C15.1952 4.27795 15.0297 4.20938 14.9077 4.08735L13.4025 2.58082C13.0305 2.20892 12.526 2 12 2C11.474 2 10.9695 2.20892 10.5975 2.58082V2.58215ZM8.195 14.8611L14.8611 8.195L15.805 9.13892L9.13892 15.805L8.195 14.8611ZM8.66696 8.66696V10.0002H10.0002V8.66696H8.66696ZM13.9998 15.333H15.333V13.9998H13.9998V15.333Z" fill="url(#paint0_linear)"/>
<defs>
<linearGradient id="paint0_linear" x1="12" y1="2" x2="12" y2="22" gradientUnits="userSpaceOnUse">
<stop stop-color="#FFB300"/>
<stop offset="1" stop-color="#FF9100"/>
</linearGradient>
</defs>
</svg>
