<svg width="30" height="30" viewBox="0 0 30 30" fill="none" xmlns="http://www.w3.org/2000/svg">
<path d="M20 3.75H6.25C4.875 3.75 3.75 4.875 3.75 6.25V23.75C3.75 25.125 4.875 26.25 6.25 26.25H23.75C25.125 26.25 26.25 25.125 26.25 23.75V10L20 3.75ZM10 8.75H13.75C14.4375 8.75 15 9.3125 15 10C15 10.6875 14.4375 11.25 13.75 11.25H10C9.3125 11.25 8.75 10.6875 8.75 10C8.75 9.3125 9.3125 8.75 10 8.75ZM20 21.25H10C9.3125 21.25 8.75 20.6875 8.75 20C8.75 19.3125 9.3125 18.75 10 18.75H20C20.6875 18.75 21.25 19.3125 21.25 20C21.25 20.6875 20.6875 21.25 20 21.25ZM20 16.25H10C9.3125 16.25 8.75 15.6875 8.75 15C8.75 14.3125 9.3125 13.75 10 13.75H20C20.6875 13.75 21.25 14.3125 21.25 15C21.25 15.6875 20.6875 16.25 20 16.25ZM18.75 10V6.25L23.75 11.25H20C19.3125 11.25 18.75 10.6875 18.75 10Z" fill="#E7ECF1"/>
</svg>
