<svg width="18" height="18" viewBox="0 0 18 18" fill="none" xmlns="http://www.w3.org/2000/svg">
<path fill-rule="evenodd" clip-rule="evenodd" d="M15 5.24989C15.1989 5.24989 15.3897 5.17087 15.5303 5.03021C15.671 4.88956 15.75 4.6988 15.75 4.49988C15.75 4.30097 15.671 4.11021 15.5303 3.96955C15.3897 3.8289 15.1989 3.74988 15 3.74988H8.1225C7.96755 3.31074 7.6802 2.93046 7.30005 2.66148C6.9199 2.39249 6.46568 2.24805 6 2.24805C5.53432 2.24805 5.0801 2.39249 4.69995 2.66148C4.3198 2.93046 4.03245 3.31074 3.8775 3.74988H3C2.80109 3.74988 2.61032 3.8289 2.46967 3.96955C2.32902 4.11021 2.25 4.30097 2.25 4.49988C2.25 4.6988 2.32902 4.88956 2.46967 5.03021C2.61032 5.17087 2.80109 5.24989 3 5.24989H3.8775C4.03245 5.68903 4.3198 6.06931 4.69995 6.33829C5.0801 6.60728 5.53432 6.75172 6 6.75172C6.46568 6.75172 6.9199 6.60728 7.30005 6.33829C7.6802 6.06931 7.96755 5.68903 8.1225 5.24989H15ZM15 9.74989C15.1989 9.74989 15.3897 9.67087 15.5303 9.53021C15.671 9.38956 15.75 9.1988 15.75 8.99989C15.75 8.80097 15.671 8.61021 15.5303 8.46955C15.3897 8.3289 15.1989 8.24989 15 8.24989H14.1225C13.9675 7.81074 13.6802 7.43046 13.3001 7.16148C12.9199 6.89249 12.4657 6.74805 12 6.74805C11.5343 6.74805 11.0801 6.89249 10.6999 7.16148C10.3198 7.43046 10.0325 7.81074 9.8775 8.24989H3C2.80109 8.24989 2.61032 8.3289 2.46967 8.46955C2.32902 8.61021 2.25 8.80097 2.25 8.99989C2.25 9.1988 2.32902 9.38956 2.46967 9.53021C2.61032 9.67087 2.80109 9.74989 3 9.74989H9.8775C10.0325 10.189 10.3198 10.5693 10.6999 10.8383C11.0801 11.1073 11.5343 11.2517 12 11.2517C12.4657 11.2517 12.9199 11.1073 13.3001 10.8383C13.6802 10.5693 13.9675 10.189 14.1225 9.74989H15ZM15 14.2499C15.1989 14.2499 15.3897 14.1709 15.5303 14.0302C15.671 13.8896 15.75 13.6988 15.75 13.4999C15.75 13.301 15.671 13.1102 15.5303 12.9696C15.3897 12.8289 15.1989 12.7499 15 12.7499H8.1225C7.96755 12.3107 7.6802 11.9305 7.30005 11.6615C6.9199 11.3925 6.46568 11.248 6 11.248C5.53432 11.248 5.0801 11.3925 4.69995 11.6615C4.3198 11.9305 4.03245 12.3107 3.8775 12.7499H3C2.80109 12.7499 2.61032 12.8289 2.46967 12.9696C2.32902 13.1102 2.25 13.301 2.25 13.4999C2.25 13.6988 2.32902 13.8896 2.46967 14.0302C2.61032 14.1709 2.80109 14.2499 3 14.2499H3.8775C4.03245 14.689 4.3198 15.0693 4.69995 15.3383C5.0801 15.6073 5.53432 15.7517 6 15.7517C6.46568 15.7517 6.9199 15.6073 7.30005 15.3383C7.6802 15.0693 7.96755 14.689 8.1225 14.2499H15Z" fill="#66737F"/>
</svg>
