<svg width="48" height="48" viewBox="0 0 48 48" fill="none" xmlns="http://www.w3.org/2000/svg">
<g clip-path="url(#clip0)">
<circle cx="24" cy="24" r="24" fill="url(#paint0_linear)" fill-opacity="0.1"/>
<rect x="30" y="23" width="3.5" height="2" rx="1" fill="url(#paint1_linear)"/>
<path fill-rule="evenodd" clip-rule="evenodd" d="M22.525 5C21.5062 5 20.6502 5.76586 20.5373 6.77841L20.0818 10.8641L20 37.2514L20.5121 41.2538C20.6399 42.2521 21.4895 43 22.496 43H25.5277C26.5277 43 27.374 42.2614 27.5093 41.2706L28 37.6775L27.9269 10.8641L27.4714 6.7784C27.3585 5.76586 26.5025 5 25.4837 5H22.525Z" fill="url(#paint2_linear)"/>
<rect x="16" y="14" width="16" height="20" rx="2" fill="url(#paint3_linear)"/>
<rect x="18" y="16" width="12" height="16" rx="1" fill="white"/>
<path d="M24.5 16.5C24.5 16.7761 24.2761 17 24 17C23.7239 17 23.5 16.7761 23.5 16.5L23.5 16L24.5 16L24.5 16.5Z" fill="url(#paint4_linear)"/>
<path d="M29.5 24.5C29.2239 24.5 29 24.2761 29 24C29 23.7239 29.2239 23.5 29.5 23.5H30V24.5H29.5Z" fill="url(#paint5_linear)"/>
<path d="M18.5 24.5C18.7761 24.5 19 24.2761 19 24C19 23.7239 18.7761 23.5 18.5 23.5H18V24.5H18.5Z" fill="url(#paint6_linear)"/>
<path d="M24.5 31.5C24.5 31.2239 24.2761 31 24 31C23.7239 31 23.5 31.2239 23.5 31.5L23.5 32L24.5 32L24.5 31.5Z" fill="url(#paint7_linear)"/>
<path d="M24.02 19H24.08C24.48 19 24.8 19.3333 24.8 19.75V24.4792L27.67 26.875C27.7527 26.9244 27.8249 26.9906 27.8825 27.0697C27.94 27.1488 27.9817 27.2392 28.0051 27.3354C28.0284 27.4316 28.0329 27.5317 28.0183 27.6298C28.0037 27.7279 27.9703 27.8219 27.92 27.9063C27.72 28.2604 27.28 28.3646 26.94 28.1562L23.79 25.5625C23.48 25.375 23.3 25.0312 23.3 24.6667V19.75C23.3 19.3333 23.62 19 24.02 19Z" fill="url(#paint8_linear)"/>
</g>
<defs>
<linearGradient id="paint0_linear" x1="24" y1="0" x2="24" y2="48" gradientUnits="userSpaceOnUse">
<stop stop-color="#4E82EA"/>
<stop offset="1" stop-color="#245BCA"/>
</linearGradient>
<linearGradient id="paint1_linear" x1="31.75" y1="23" x2="31.75" y2="25" gradientUnits="userSpaceOnUse">
<stop stop-color="#FFB300"/>
<stop offset="1" stop-color="#FF9100"/>
</linearGradient>
<linearGradient id="paint2_linear" x1="19.0007" y1="2.26445e-06" x2="39.2913" y2="4.83822" gradientUnits="userSpaceOnUse">
<stop stop-color="#5EB9E4"/>
<stop offset="1" stop-color="#2F74E6"/>
</linearGradient>
<linearGradient id="paint3_linear" x1="24" y1="14" x2="24" y2="34" gradientUnits="userSpaceOnUse">
<stop stop-color="#FF9100"/>
<stop offset="1" stop-color="#FFB300"/>
</linearGradient>
<linearGradient id="paint4_linear" x1="24.5" y1="17" x2="23.5717" y2="15.9374" gradientUnits="userSpaceOnUse">
<stop stop-color="#5EB9E4"/>
<stop offset="1" stop-color="#2F74E6"/>
</linearGradient>
<linearGradient id="paint5_linear" x1="29" y1="24.5" x2="30.0626" y2="23.5717" gradientUnits="userSpaceOnUse">
<stop stop-color="#5EB9E4"/>
<stop offset="1" stop-color="#2F74E6"/>
</linearGradient>
<linearGradient id="paint6_linear" x1="19" y1="24.5" x2="17.9374" y2="23.5717" gradientUnits="userSpaceOnUse">
<stop stop-color="#5EB9E4"/>
<stop offset="1" stop-color="#2F74E6"/>
</linearGradient>
<linearGradient id="paint7_linear" x1="24.5" y1="31" x2="23.5717" y2="32.0626" gradientUnits="userSpaceOnUse">
<stop stop-color="#5EB9E4"/>
<stop offset="1" stop-color="#2F74E6"/>
</linearGradient>
<linearGradient id="paint8_linear" x1="26.1634" y1="19" x2="26.1634" y2="28.2629" gradientUnits="userSpaceOnUse">
<stop stop-color="#FFB300"/>
<stop offset="1" stop-color="#FF9100"/>
</linearGradient>
<clipPath id="clip0">
<rect width="48" height="48" fill="white"/>
</clipPath>
</defs>
</svg>
