<svg width="48" height="48" viewBox="0 0 48 48" fill="none" xmlns="http://www.w3.org/2000/svg">
<circle cx="24" cy="24" r="24" fill="url(#paint0_linear)" fill-opacity="0.1"/>
<path fill-rule="evenodd" clip-rule="evenodd" d="M21.6602 5C20.6623 5 19.8171 5.7356 19.6793 6.72396L19.1024 10.8641L19.0007 37.0886C19.0003 37.197 19.0087 37.3052 19.0258 37.4122L19.6502 41.3159C19.8054 42.2862 20.6425 43 21.6251 43H26.404C27.3787 43 28.2114 42.2974 28.3755 41.3366L28.971 37.8479C28.9904 37.7345 28.9999 37.6196 28.9995 37.5045L28.9087 10.8641L28.3317 6.72396C28.194 5.7356 27.3488 5 26.3509 5H21.6602Z" fill="url(#paint1_linear)"/>
<path d="M18.7093 13.4881C18.9416 12.6109 19.7353 12 20.6427 12H27.3703C28.2777 12 29.0714 12.6109 29.3037 13.4881L29.8254 15.4584C29.8685 15.6212 29.8908 15.7889 29.8919 15.9573L29.9979 32.3155C29.9993 32.5294 29.9664 32.7421 29.9004 32.9455L29.3582 34.6171C29.0908 35.4416 28.3226 36 27.4558 36H20.5859C19.7053 36 18.9283 35.4241 18.6723 34.5815L18.0886 32.6609C18.0299 32.4676 18.0008 32.2666 18.0022 32.0646L18.1208 15.9564C18.1221 15.7886 18.1445 15.6215 18.1874 15.4593L18.7093 13.4881Z" fill="url(#paint2_linear)"/>
<rect x="32" y="22" width="4" height="4" rx="1" fill="url(#paint3_linear)"/>
<rect x="30" y="18.8281" width="3" height="2" rx="1" transform="rotate(-45 30 18.8281)" fill="url(#paint4_linear)"/>
<rect width="3" height="2" rx="1" transform="matrix(-0.707107 -0.707107 -0.707107 0.707107 33.5356 30.1211)" fill="url(#paint5_linear)"/>
<path d="M23.99 14C18.47 14 14 18.48 14 24C14 29.52 18.47 34 23.99 34C29.52 34 34 29.52 34 24C34 18.48 29.52 14 23.99 14Z" fill="url(#paint6_linear)"/>
<path d="M16 24C16 28.42 19.58 32 24 32C28.42 32 32 28.42 32 24C32 19.58 28.42 16 24 16C19.58 16 16 19.58 16 24Z" fill="white"/>
<rect x="19" y="20" width="10" height="5" rx="1" fill="url(#paint7_linear)"/>
<rect x="19" y="26" width="10" height="2" rx="1" fill="url(#paint8_linear)"/>
<defs>
<linearGradient id="paint0_linear" x1="24" y1="0" x2="24" y2="48" gradientUnits="userSpaceOnUse">
<stop stop-color="#4E82EA"/>
<stop offset="1" stop-color="#245BCA"/>
</linearGradient>
<linearGradient id="paint1_linear" x1="19" y1="-1.05552e-06" x2="39.2927" y2="4.83931" gradientUnits="userSpaceOnUse">
<stop stop-color="#5EB9E4"/>
<stop offset="1" stop-color="#2F74E6"/>
</linearGradient>
<linearGradient id="paint2_linear" x1="24.0066" y1="12" x2="24.0066" y2="36" gradientUnits="userSpaceOnUse">
<stop stop-color="#FF9100"/>
<stop offset="1" stop-color="#FFB300"/>
</linearGradient>
<linearGradient id="paint3_linear" x1="34" y1="22" x2="34" y2="26" gradientUnits="userSpaceOnUse">
<stop stop-color="#FFB300"/>
<stop offset="1" stop-color="#FF9100"/>
</linearGradient>
<linearGradient id="paint4_linear" x1="31.5" y1="18.8281" x2="31.5" y2="20.8281" gradientUnits="userSpaceOnUse">
<stop stop-color="#FFB300"/>
<stop offset="1" stop-color="#FF9100"/>
</linearGradient>
<linearGradient id="paint5_linear" x1="1.5" y1="0" x2="1.5" y2="2" gradientUnits="userSpaceOnUse">
<stop stop-color="#FFB300"/>
<stop offset="1" stop-color="#FF9100"/>
</linearGradient>
<linearGradient id="paint6_linear" x1="24" y1="14" x2="24" y2="34" gradientUnits="userSpaceOnUse">
<stop stop-color="#FFB300"/>
<stop offset="1" stop-color="#FF9100"/>
</linearGradient>
<linearGradient id="paint7_linear" x1="24" y1="20" x2="24" y2="25" gradientUnits="userSpaceOnUse">
<stop stop-color="#FFB300"/>
<stop offset="1" stop-color="#FF9100"/>
</linearGradient>
<linearGradient id="paint8_linear" x1="24" y1="26" x2="24" y2="28" gradientUnits="userSpaceOnUse">
<stop stop-color="#FFB300"/>
<stop offset="1" stop-color="#FF9100"/>
</linearGradient>
</defs>
</svg>
