<svg width="16" height="16" viewBox="0 0 16 16" fill="none" xmlns="http://www.w3.org/2000/svg">
<path d="M7.99996 1.33325C5.19996 1.33325 2.66663 3.47992 2.66663 6.79992C2.66663 8.91992 4.29996 11.4133 7.55996 14.2866C7.81329 14.5066 8.19329 14.5066 8.44663 14.2866C11.7 11.4133 13.3333 8.91992 13.3333 6.79992C13.3333 3.47992 10.8 1.33325 7.99996 1.33325ZM7.99996 7.99992C7.26663 7.99992 6.66663 7.39992 6.66663 6.66659C6.66663 5.93325 7.26663 5.33325 7.99996 5.33325C8.73329 5.33325 9.33329 5.93325 9.33329 6.66659C9.33329 7.39992 8.73329 7.99992 7.99996 7.99992Z" fill="url(#paint0_linear)"/>
<defs>
<linearGradient id="paint0_linear" x1="7.99996" y1="1.33325" x2="7.99996" y2="14.4516" gradientUnits="userSpaceOnUse">
<stop stop-color="#FFB300"/>
<stop offset="1" stop-color="#FF9100"/>
</linearGradient>
</defs>
</svg>
