<svg width="24" height="24" viewBox="0 0 24 24" fill="none" xmlns="http://www.w3.org/2000/svg">
<path d="M10.5 8C10.106 8 9.71593 8.0776 9.35195 8.22836C8.98797 8.37913 8.65726 8.6001 8.37868 8.87868C8.1001 9.15726 7.87913 9.48797 7.72836 9.85195C7.5776 10.2159 7.5 10.606 7.5 11C7.5 11.394 7.5776 11.7841 7.72836 12.1481C7.87913 12.512 8.1001 12.8427 8.37868 13.1213C8.65726 13.3999 8.98797 13.6209 9.35195 13.7716C9.71593 13.9224 10.106 14 10.5 14C11.2956 14 12.0587 13.6839 12.6213 13.1213C13.1839 12.5587 13.5 11.7956 13.5 11C13.5 10.2044 13.1839 9.44129 12.6213 8.87868C12.0587 8.31607 11.2956 8 10.5 8ZM9 11C9 10.6022 9.15804 10.2206 9.43934 9.93934C9.72064 9.65804 10.1022 9.5 10.5 9.5C10.8978 9.5 11.2794 9.65804 11.5607 9.93934C11.842 10.2206 12 10.6022 12 11C12 11.3978 11.842 11.7794 11.5607 12.0607C11.2794 12.342 10.8978 12.5 10.5 12.5C10.1022 12.5 9.72064 12.342 9.43934 12.0607C9.15804 11.7794 9 11.3978 9 11Z" fill="url(#paint0_linear)"/>
<path d="M0 6C0 5.20435 0.29283 4.44129 0.814071 3.87868C1.33531 3.31607 2.04227 3 2.77941 3H18.2206C18.5856 3 18.947 3.0776 19.2842 3.22836C19.6214 3.37913 19.9278 3.6001 20.1859 3.87868C20.444 4.15726 20.6488 4.48797 20.7884 4.85195C20.9281 5.21593 21 5.60603 21 6V16C21 16.394 20.9281 16.7841 20.7884 17.1481C20.6488 17.512 20.444 17.8427 20.1859 18.1213C19.9278 18.3999 19.6214 18.6209 19.2842 18.7716C18.947 18.9224 18.5856 19 18.2206 19H2.77941C2.04227 19 1.33531 18.6839 0.814071 18.1213C0.29283 17.5587 0 16.7956 0 16V6ZM2.77941 5C2.5337 5 2.29804 5.10536 2.1243 5.29289C1.95055 5.48043 1.85294 5.73478 1.85294 6V7H2.77941C3.02513 7 3.26078 6.89464 3.43453 6.70711C3.60827 6.51957 3.70588 6.26522 3.70588 6V5H2.77941ZM1.85294 13H2.77941C3.51656 13 4.22351 13.3161 4.74475 13.8787C5.26599 14.4413 5.55882 15.2044 5.55882 16V17H15.4412V16C15.4412 15.2044 15.734 14.4413 16.2552 13.8787C16.7765 13.3161 17.4834 13 18.2206 13H19.1471V9H18.2206C17.4834 9 16.7765 8.68393 16.2552 8.12132C15.734 7.55871 15.4412 6.79565 15.4412 6V5H5.55882V6C5.55882 6.39397 5.48693 6.78407 5.34725 7.14805C5.20757 7.51203 5.00284 7.84274 4.74475 8.12132C4.48666 8.3999 4.18026 8.62087 3.84305 8.77164C3.50583 8.9224 3.14441 9 2.77941 9H1.85294V13ZM19.1471 7V6C19.1471 5.73478 19.0494 5.48043 18.8757 5.29289C18.702 5.10536 18.4663 5 18.2206 5H17.2941V6C17.2941 6.552 17.7092 7 18.2206 7H19.1471ZM19.1471 15H18.2206C17.9749 15 17.7392 15.1054 17.5655 15.2929C17.3917 15.4804 17.2941 15.7348 17.2941 16V17H18.2206C18.4663 17 18.702 16.8946 18.8757 16.7071C19.0494 16.5196 19.1471 16.2652 19.1471 16V15ZM1.85294 16C1.85294 16.552 2.268 17 2.77941 17H3.70588V16C3.70588 15.7348 3.60827 15.4804 3.43453 15.2929C3.26078 15.1054 3.02513 15 2.77941 15H1.85294V16Z" fill="url(#paint1_linear)"/>
<path d="M2 20.0951C2.32915 20.6745 2.80273 21.1556 3.37308 21.49C3.94342 21.8244 4.59041 22.0003 5.24893 22H18.0622C18.8419 22 19.6141 21.844 20.3345 21.5408C21.0549 21.2377 21.7095 20.7933 22.2608 20.2332C22.8122 19.6731 23.2496 19.0081 23.548 18.2762C23.8464 17.5443 24 16.7599 24 15.9678V9.30058C24 7.89094 23.2462 6.6591 22.1249 6V15.9678C22.1249 17.0624 21.6969 18.1122 20.9349 18.8862C20.173 19.6602 19.1397 20.0951 18.0622 20.0951H2Z" fill="url(#paint2_linear)"/>
<defs>
<linearGradient id="paint0_linear" x1="7.64286" y1="7.99844" x2="13.1965" y2="14.5138" gradientUnits="userSpaceOnUse">
<stop stop-color="#5EB9E4"/>
<stop offset="1" stop-color="#2F74E6"/>
</linearGradient>
<linearGradient id="paint1_linear" x1="0.499999" y1="2.99583" x2="14.2025" y2="24.0948" gradientUnits="userSpaceOnUse">
<stop stop-color="#5EB9E4"/>
<stop offset="1" stop-color="#2F74E6"/>
</linearGradient>
<linearGradient id="paint2_linear" x1="2.52381" y1="5.99583" x2="15.9575" y2="27.6659" gradientUnits="userSpaceOnUse">
<stop stop-color="#5EB9E4"/>
<stop offset="1" stop-color="#2F74E6"/>
</linearGradient>
</defs>
</svg>
