<svg width="36" height="36" viewBox="0 0 36 36" fill="none" xmlns="http://www.w3.org/2000/svg">
<path d="M15.75 10.5C14.5565 10.5 13.4119 10.9741 12.568 11.818C11.7241 12.6619 11.25 13.8065 11.25 15C11.25 16.1935 11.7241 17.3381 12.568 18.182C13.4119 19.0259 14.5565 19.5 15.75 19.5C16.9435 19.5 18.0881 19.0259 18.932 18.182C19.7759 17.3381 20.25 16.1935 20.25 15C20.25 13.8065 19.7759 12.6619 18.932 11.818C18.0881 10.9741 16.9435 10.5 15.75 10.5ZM13.5 15C13.5 14.4033 13.7371 13.831 14.159 13.409C14.581 12.9871 15.1533 12.75 15.75 12.75C16.3467 12.75 16.919 12.9871 17.341 13.409C17.7629 13.831 18 14.4033 18 15C18 15.5967 17.7629 16.169 17.341 16.591C16.919 17.0129 16.3467 17.25 15.75 17.25C15.1533 17.25 14.581 17.0129 14.159 16.591C13.7371 16.169 13.5 15.5967 13.5 15ZM3 9.375C3 8.47989 3.35558 7.62145 3.98851 6.98851C4.62145 6.35558 5.47989 6 6.375 6H25.125C25.5682 6 26.0071 6.0873 26.4166 6.25691C26.826 6.42652 27.1981 6.67512 27.5115 6.98851C27.8249 7.30191 28.0735 7.67397 28.2431 8.08344C28.4127 8.49292 28.5 8.93179 28.5 9.375V16.5H26.25V12.75H25.125C24.2299 12.75 23.3715 12.3944 22.7385 11.7615C22.1056 11.1286 21.75 10.2701 21.75 9.375V8.25H9.75V9.375C9.75 10.2701 9.39442 11.1286 8.76149 11.7615C8.12855 12.3944 7.27011 12.75 6.375 12.75H5.25V17.25H6.375C7.27011 17.25 8.12855 17.6056 8.76149 18.2385C9.39442 18.8715 9.75 19.7299 9.75 20.625V21.75H21V24H6.375C5.47989 24 4.62145 23.6444 3.98851 23.0115C3.35558 22.3785 3 21.5201 3 20.625V9.375ZM6.375 8.25C6.07663 8.25 5.79048 8.36853 5.5795 8.5795C5.36853 8.79048 5.25 9.07663 5.25 9.375V10.5H6.375C6.67337 10.5 6.95952 10.3815 7.1705 10.1705C7.38147 9.95952 7.5 9.67337 7.5 9.375V8.25H6.375ZM26.25 10.5V9.375C26.25 9.07663 26.1315 8.79048 25.9205 8.5795C25.7095 8.36853 25.4234 8.25 25.125 8.25H24V9.375C24 9.996 24.504 10.5 25.125 10.5H26.25ZM5.25 20.625C5.25 21.246 5.754 21.75 6.375 21.75H7.5V20.625C7.5 20.3266 7.38147 20.0405 7.1705 19.8295C6.95952 19.6185 6.67337 19.5 6.375 19.5H5.25V20.625ZM6.6015 26.25H21V28.5H10.5C8.835 28.5 7.38 27.5955 6.6015 26.25ZM33 16.5V13.5C33 11.835 32.0955 10.38 30.75 9.6015V16.5H33ZM24.75 18C24.1533 18 23.581 18.2371 23.159 18.659C22.7371 19.081 22.5 19.6533 22.5 20.25V32.25C22.5 32.8467 22.7371 33.419 23.159 33.841C23.581 34.2629 24.1533 34.5 24.75 34.5H32.25C32.8467 34.5 33.419 34.2629 33.841 33.841C34.2629 33.419 34.5 32.8467 34.5 32.25V20.25C34.5 19.6533 34.2629 19.081 33.841 18.659C33.419 18.2371 32.8467 18 32.25 18H24.75ZM25.5 24.75H27C27.1989 24.75 27.3897 24.829 27.5303 24.9697C27.671 25.1103 27.75 25.3011 27.75 25.5C27.75 25.6989 27.671 25.8897 27.5303 26.0303C27.3897 26.171 27.1989 26.25 27 26.25H25.5C25.3011 26.25 25.1103 26.171 24.9697 26.0303C24.829 25.8897 24.75 25.6989 24.75 25.5C24.75 25.3011 24.829 25.1103 24.9697 24.9697C25.1103 24.829 25.3011 24.75 25.5 24.75ZM30 24.75H31.5C31.6989 24.75 31.8897 24.829 32.0303 24.9697C32.171 25.1103 32.25 25.3011 32.25 25.5C32.25 25.6989 32.171 25.8897 32.0303 26.0303C31.8897 26.171 31.6989 26.25 31.5 26.25H30C29.8011 26.25 29.6103 26.171 29.4697 26.0303C29.329 25.8897 29.25 25.6989 29.25 25.5C29.25 25.3011 29.329 25.1103 29.4697 24.9697C29.6103 24.829 29.8011 24.75 30 24.75ZM25.5 27.75H27C27.1989 27.75 27.3897 27.829 27.5303 27.9697C27.671 28.1103 27.75 28.3011 27.75 28.5C27.75 28.6989 27.671 28.8897 27.5303 29.0303C27.3897 29.171 27.1989 29.25 27 29.25H25.5C25.3011 29.25 25.1103 29.171 24.9697 29.0303C24.829 28.8897 24.75 28.6989 24.75 28.5C24.75 28.3011 24.829 28.1103 24.9697 27.9697C25.1103 27.829 25.3011 27.75 25.5 27.75ZM30 27.75H31.5C31.6989 27.75 31.8897 27.829 32.0303 27.9697C32.171 28.1103 32.25 28.3011 32.25 28.5C32.25 28.6989 32.171 28.8897 32.0303 29.0303C31.8897 29.171 31.6989 29.25 31.5 29.25H30C29.8011 29.25 29.6103 29.171 29.4697 29.0303C29.329 28.8897 29.25 28.6989 29.25 28.5C29.25 28.3011 29.329 28.1103 29.4697 27.9697C29.6103 27.829 29.8011 27.75 30 27.75ZM25.5 30.75H27C27.1989 30.75 27.3897 30.829 27.5303 30.9697C27.671 31.1103 27.75 31.3011 27.75 31.5C27.75 31.6989 27.671 31.8897 27.5303 32.0303C27.3897 32.171 27.1989 32.25 27 32.25H25.5C25.3011 32.25 25.1103 32.171 24.9697 32.0303C24.829 31.8897 24.75 31.6989 24.75 31.5C24.75 31.3011 24.829 31.1103 24.9697 30.9697C25.1103 30.829 25.3011 30.75 25.5 30.75ZM30 30.75H31.5C31.6989 30.75 31.8897 30.829 32.0303 30.9697C32.171 31.1103 32.25 31.3011 32.25 31.5C32.25 31.6989 32.171 31.8897 32.0303 32.0303C31.8897 32.171 31.6989 32.25 31.5 32.25H30C29.8011 32.25 29.6103 32.171 29.4697 32.0303C29.329 31.8897 29.25 31.6989 29.25 31.5C29.25 31.3011 29.329 31.1103 29.4697 30.9697C29.6103 30.829 29.8011 30.75 30 30.75ZM24.75 21C24.75 20.8011 24.829 20.6103 24.9697 20.4697C25.1103 20.329 25.3011 20.25 25.5 20.25H31.5C31.6989 20.25 31.8897 20.329 32.0303 20.4697C32.171 20.6103 32.25 20.8011 32.25 21V22.5C32.25 22.6989 32.171 22.8897 32.0303 23.0303C31.8897 23.171 31.6989 23.25 31.5 23.25H25.5C25.3011 23.25 25.1103 23.171 24.9697 23.0303C24.829 22.8897 24.75 22.6989 24.75 22.5V21Z" fill="url(#paint0_linear)"/>
<defs>
<linearGradient id="paint0_linear" x1="3.75" y1="5.99258" x2="29.59" y2="39.4983" gradientUnits="userSpaceOnUse">
<stop stop-color="#5EB9E4"/>
<stop offset="1" stop-color="#2F74E6"/>
</linearGradient>
</defs>
</svg>
