<svg width="36" height="36" viewBox="0 0 36 36" fill="none" xmlns="http://www.w3.org/2000/svg">
<path d="M18.295 9.18366C18.2698 9.12892 18.2295 9.08254 18.1788 9.05003C18.1281 9.01752 18.0691 9.00024 18.0088 9.00024C17.9486 9.00024 17.8896 9.01752 17.8389 9.05003C17.7881 9.08254 17.7478 9.12892 17.7226 9.18366L16.4338 11.9791C16.4112 12.0277 16.3765 12.0698 16.333 12.1013C16.2895 12.1328 16.2387 12.1527 16.1854 12.1591L13.1272 12.5227C13.0676 12.5299 13.0113 12.554 12.9649 12.5922C12.9185 12.6304 12.884 12.681 12.8655 12.7381C12.8469 12.7953 12.8451 12.8565 12.8602 12.9147C12.8754 12.9728 12.9068 13.0254 12.9508 13.0663L15.2116 15.1561C15.2513 15.1927 15.281 15.2389 15.2977 15.2903C15.3144 15.3417 15.3176 15.3965 15.307 15.4495L14.7058 18.4681C14.6536 18.7327 14.9344 18.9361 15.1684 18.8047L17.8558 17.3017C17.9026 17.2757 17.9553 17.262 18.0088 17.262C18.0624 17.262 18.115 17.2757 18.1618 17.3017L20.8492 18.8047C21.0832 18.9361 21.364 18.7327 21.3118 18.4681L20.7124 15.4495C20.7018 15.3965 20.705 15.3417 20.7217 15.2903C20.7384 15.2389 20.7681 15.1927 20.8078 15.1561L23.0668 13.0663C23.1108 13.0254 23.1423 12.9728 23.1574 12.9147C23.1725 12.8565 23.1707 12.7953 23.1522 12.7381C23.1336 12.681 23.0991 12.6304 23.0527 12.5922C23.0064 12.554 22.9501 12.5299 22.8904 12.5227L19.834 12.1591C19.7804 12.153 19.7292 12.1333 19.6854 12.1018C19.6416 12.0702 19.6066 12.028 19.5838 11.9791L18.295 9.18366Z" fill="url(#paint0_linear)"/>
<path d="M28.8 14.4001C28.8016 15.9199 28.4817 17.4228 27.8613 18.8101C27.2408 20.1974 26.3338 21.4378 25.2 22.4497V31.5001C25.1999 31.6577 25.1585 31.8125 25.0798 31.9491C25.0011 32.0857 24.8879 32.1992 24.7516 32.2783C24.6153 32.3574 24.4606 32.3993 24.303 32.3998C24.1454 32.4003 23.9904 32.3595 23.8536 32.2813L18 28.9369L12.1464 32.2813C12.0095 32.3595 11.8545 32.4003 11.6969 32.3998C11.5393 32.3993 11.3846 32.3574 11.2483 32.2783C11.112 32.1992 10.9988 32.0857 10.9201 31.9491C10.8414 31.8125 10.8 31.6577 10.8 31.5001V22.4497C9.45718 21.2487 8.43617 19.7309 7.8299 18.0344C7.22363 16.338 7.05136 14.5168 7.32877 12.7368C7.60618 10.9568 8.32446 9.2744 9.41821 7.8429C10.512 6.4114 11.9464 5.27625 13.591 4.5408C15.2355 3.80535 17.038 3.49298 18.8341 3.63212C20.6302 3.77126 22.363 4.3575 23.8747 5.33745C25.3864 6.3174 26.6289 7.65994 27.4891 9.2428C28.3494 10.8257 28.8 12.5986 28.8 14.4001ZM18 25.2001C16.104 25.2029 14.241 24.7042 12.6 23.7547V29.9503L17.5536 27.1189C17.6895 27.0412 17.8434 27.0004 18 27.0004C18.1565 27.0004 18.3104 27.0412 18.4464 27.1189L23.4 29.9521V23.7565C21.7587 24.7055 19.8958 25.2035 18 25.2001ZM18 23.4001C20.3869 23.4001 22.6761 22.4519 24.3639 20.7641C26.0517 19.0762 27 16.7871 27 14.4001C27 12.0132 26.0517 9.72397 24.3639 8.03614C22.6761 6.34831 20.3869 5.4001 18 5.4001C15.613 5.4001 13.3238 6.34831 11.636 8.03614C9.94817 9.72397 8.99995 12.0132 8.99995 14.4001C8.99995 16.7871 9.94817 19.0762 11.636 20.7641C13.3238 22.4519 15.613 23.4001 18 23.4001Z" fill="url(#paint1_linear)"/>
<defs>
<linearGradient id="paint0_linear" x1="18.0088" y1="9.00024" x2="18.0088" y2="18.8457" gradientUnits="userSpaceOnUse">
<stop stop-color="#FFB300"/>
<stop offset="1" stop-color="#FF9100"/>
</linearGradient>
<linearGradient id="paint1_linear" x1="18" y1="3.59985" x2="18" y2="32.3998" gradientUnits="userSpaceOnUse">
<stop stop-color="#FFB300"/>
<stop offset="1" stop-color="#FF9100"/>
</linearGradient>
</defs>
</svg>
