<svg width="48" height="48" viewBox="0 0 48 48" fill="none" xmlns="http://www.w3.org/2000/svg">
<circle cx="24" cy="24" r="24" fill="url(#paint0_linear)" fill-opacity="0.1"/>
<path d="M36.9323 25.3923C34.9334 24.9495 32.8247 24.9849 30.8742 24.3204C29.1983 23.748 27.7866 22.1526 26.3826 21.1184C26.321 21.0735 26.2061 21.0493 26.0757 21.0415C26.0935 20.6728 26.1279 20.303 26.2056 19.9298C26.2439 19.7446 25.7494 19.643 25.4015 19.7048C25.0241 19.6459 24.4714 19.7727 24.6035 19.9354C24.6324 19.9719 24.6507 20.0202 24.6729 20.0628C24.6196 20.1997 24.5652 20.3367 24.5086 20.4719C24.4032 20.725 24.2639 20.9023 24.0652 20.7598C24.0003 20.7138 23.9509 20.5387 23.9354 20.4107C23.8932 20.0751 24.0502 19.9186 24.2112 19.7845C24.2445 19.7581 24.2916 19.78 24.3299 19.7581C24.5641 19.6178 24.6057 19.349 24.4381 19.0516C24.3111 18.8277 24.1734 18.6183 23.9992 18.3338C23.8632 18.6705 23.7633 18.9915 23.6191 19.2542C23.5331 19.409 23.3799 19.5493 23.2545 19.5516C23.1707 19.5538 23.0009 19.2738 23.0164 19.1739C23.0497 18.9601 23.1674 18.6301 23.2678 18.6167C23.5547 18.5802 23.623 18.2721 23.6995 17.9881L23.0431 17.157C22.9282 17.473 22.8228 17.8164 22.6818 18.1217C22.6235 18.2457 22.4909 18.3248 22.3888 18.3467C22.3339 18.3591 22.2134 18.202 22.2123 18.1183C22.209 17.9208 22.2234 17.6672 22.2995 17.5342C22.4082 17.3462 22.5836 17.2524 22.7262 17.1049C22.8694 16.9567 22.886 16.8086 22.7173 16.6559C22.6457 16.5914 22.5952 16.4718 22.5314 16.3826C22.2384 15.978 22.0875 16.0369 21.9277 16.602C21.8416 16.9051 21.7456 17.2485 21.4793 17.1077C21.3866 17.06 21.2701 16.7771 21.2906 16.652C21.3217 16.4573 21.4582 16.2968 21.5597 16.1363C21.6663 15.9657 21.8955 15.7283 21.8772 15.6671C21.7956 15.4107 21.6602 15.1722 21.5081 15.01C21.4582 14.9567 21.2884 15.129 21.1907 15.2373C20.4715 16.0353 19.7629 16.8579 19.0376 17.6419C18.6542 18.0544 18.264 18.4679 17.8417 18.7699C17.3678 19.1111 16.8523 19.3125 16.3601 19.601C15.5249 20.0914 14.6543 20.1335 13.7825 20.0376C13.3452 19.9899 12.9085 19.7856 12.4767 19.6234C12.0599 19.4683 11.6519 19.2898 11.2548 19.0886C10.8835 18.8989 10.5284 18.6526 10.1638 18.4365C9.87135 18.2637 9.58002 18.074 9.28036 17.9326C8.84876 17.7308 8.40988 17.5452 7.96463 17.3765C7.73767 17.2895 7.58284 17.363 7.56564 17.8209C7.55288 18.1486 7.50848 18.5302 7.3864 18.7783C7.25322 19.0504 6.78653 19.6666 6.85201 19.8002C6.80595 19.7833 6.8115 19.8193 6.84202 19.8827C6.77376 20.5325 6.73769 21.083 6.64724 21.6021C6.36201 23.2188 6.53237 24.8642 6.48631 26.4944C6.47521 26.9013 6.56677 27.0292 6.83314 27.0303C7.49738 27.0315 8.16329 27.0769 8.82865 27.1229C9.69378 27.1813 10.5578 27.2509 11.4213 27.3323C11.7265 27.3614 12.0328 27.4378 12.3402 27.4866L12.3435 27.4939C12.4362 27.6987 15.3551 27.8081 16.3901 27.9451C16.4605 27.954 16.7119 27.9529 16.9616 27.9322C16.9023 28.0068 16.8395 28.0898 16.7558 28.1976C16.9772 28.2863 17.1436 28.3727 17.3107 28.4159C17.9411 28.573 18.5726 28.72 19.2041 28.8687C19.5775 28.9552 19.9876 29.9765 20.3544 30.1045C20.8677 30.2835 21.3605 30.6101 21.8705 30.8177C22.0886 30.9047 22.921 31.3716 23.1402 31.4603C23.7251 31.6976 23.8299 31.4507 24.4098 31.7094C24.8416 31.9013 25.2117 32.0557 25.644 32.2442C25.8909 32.352 26.0541 31.5152 26.3116 31.5669C26.7921 31.6628 27.2749 31.7942 27.7594 31.8127C28.7383 31.8514 29.721 31.8783 30.6988 31.8093C31.4996 31.7521 32.2975 31.5506 33.0972 31.4137C33.1072 31.4114 33.1172 31.4092 33.126 31.4131C33.7126 31.3216 34.303 31.2504 34.8868 31.1359C35.4157 31.0326 35.9401 30.8839 36.4684 30.7543C36.5083 30.7442 36.5494 30.7335 36.5888 30.7274C37.1637 30.6454 37.7402 30.5826 38.314 30.4771C39.0338 30.3435 39.7546 30.1774 40.4744 30.018C40.506 30.0099 40.5355 29.9946 40.5604 29.9733C40.5854 29.952 40.6053 29.9253 40.6186 29.8951C40.6353 29.8497 40.6486 29.7902 40.6558 29.7223C40.8512 29.6897 41.001 29.6174 40.9832 29.513C40.6231 27.3581 39.0649 25.8687 36.9301 25.3962" fill="url(#paint1_linear)"/>
<path d="M21.9288 29.7067C16.3326 27.4039 12.1501 23.5947 10.9627 18.8631C10.7014 18.7123 10.4474 18.5514 10.1884 18.3995C9.89666 18.2286 9.60548 18.0412 9.30597 17.9014C8.87461 17.7019 8.43596 17.5186 7.99094 17.3518C7.7641 17.2658 7.60936 17.3385 7.59216 17.791C7.57941 18.1149 7.53504 18.4921 7.41302 18.7372C7.27991 19.0062 6.81346 19.6152 6.87891 19.7472C6.83287 19.7306 6.83842 19.7661 6.86892 19.8288C6.8007 20.471 6.76465 21.0151 6.67425 21.5281C6.38917 23.126 6.55944 24.7522 6.51341 26.3634C6.50231 26.7655 6.59383 26.892 6.86005 26.8931C7.52394 26.8942 8.1895 26.9391 8.8545 26.9846C9.71918 27.0423 10.5827 27.1111 11.4457 27.1915C11.7508 27.2203 12.0569 27.2958 12.3642 27.344L12.3675 27.3512C12.4602 27.5537 15.3775 27.6618 16.4119 27.7971C16.4824 27.806 16.7336 27.8049 16.9832 27.7844C16.9238 27.8582 16.8612 27.9402 16.7774 28.0467C16.9987 28.1344 17.1651 28.2198 17.332 28.2625C17.9621 28.4178 18.5933 28.5631 19.2244 28.7101C19.5977 28.7955 20.0076 29.8049 20.3742 29.9314C20.8872 30.1083 21.3797 30.4311 21.8895 30.6363C22.1074 30.7223 22.9394 31.1837 23.1585 31.2714C23.743 31.506 23.8479 31.2619 24.4274 31.5176C24.8589 31.7073 25.2289 31.8598 25.6609 32.0462C25.9078 32.1527 26.0708 31.3257 26.3282 31.3767C26.8085 31.4716 27.291 31.6014 27.7752 31.6197C27.9649 31.6274 28.1535 31.6285 28.3426 31.6335C26.149 31.1815 24.0015 30.5614 21.9266 29.7067" fill="url(#paint2_linear)"/>
<path d="M21.9468 16.5873C21.8608 16.8868 21.7649 17.2262 21.4986 17.087C21.406 17.0398 21.2895 16.7603 21.3101 16.6366C21.3411 16.4442 21.4776 16.2856 21.579 16.1269C21.6855 15.9583 21.9146 15.7237 21.8963 15.6633C21.8148 15.4098 21.6794 15.1741 21.5275 15.0138C21.4776 14.9611 21.3078 15.1314 21.2102 15.2384L20.8808 15.6017C20.5624 17.0731 21.2784 18.0382 23.0538 19.0448C23.101 18.8402 23.1991 18.5889 23.2873 18.5778C23.5741 18.5418 23.6423 18.2373 23.7188 17.9567L23.0627 17.1352C22.9479 17.4475 22.8425 17.7869 22.7016 18.0887C22.6434 18.2112 22.5108 18.2894 22.4088 18.3111C22.3539 18.3233 22.2335 18.168 22.2324 18.0853C22.2291 17.8901 22.2435 17.6394 22.3195 17.508C22.4282 17.3222 22.6035 17.2295 22.746 17.0837C22.8891 16.9372 22.9057 16.7908 22.7371 16.64C22.6656 16.5762 22.6151 16.458 22.5513 16.3699C22.2574 15.9705 22.1065 16.0288 21.9468 16.5873Z" fill="url(#paint3_linear)"/>
<path fill-rule="evenodd" clip-rule="evenodd" d="M41.5674 29.9957C41.5198 29.667 41.3403 29.4421 41.041 29.3188C41.0396 29.3182 41.0383 29.3173 41.0375 29.3161C41.0348 29.312 41.03 29.3091 41.0253 29.3104L41.0251 29.3105C41.0232 29.311 41.0213 29.3109 41.0195 29.3102C39.6824 28.7881 36.438 29.9515 35.8149 30.1845C35.7447 30.2108 35.674 30.2296 35.5998 30.2406C34.8794 30.347 30.8043 30.9472 28.1054 31.3041C24.0272 31.8454 18.7232 28.0661 17.3816 27.811C17.34 27.7988 17.2967 27.7888 17.2574 27.7777C17.2327 27.7709 17.2083 27.7634 17.1841 27.7553C17.0942 27.7252 17.0034 27.697 16.9096 27.6836C16.6282 27.6434 16.3475 27.5987 16.0676 27.5496C16.0558 27.5475 16.0441 27.5487 16.0322 27.5487C15.7123 27.5229 15.3931 27.4894 15.0749 27.4483C14.5202 27.3995 13.9656 27.3523 13.4054 27.3024C13.3688 27.2988 13.3318 27.2957 13.2945 27.2928C13.23 27.2877 13.1651 27.2895 13.1009 27.2976C13.0416 27.3051 12.9878 27.3097 12.934 27.3013C12.7831 27.2802 12.6323 27.2497 12.4792 27.2203L12.223 27.1959C8.99351 26.5668 7.54687 26.5617 6.90093 26.6765C6.84485 26.6864 6.78849 26.692 6.73263 26.7031C6.66724 26.7161 6.60448 26.7407 6.54742 26.7761C6.3971 26.8453 6.37981 26.912 6.37886 26.9162C6.37883 26.9163 6.37881 26.9165 6.37881 26.9166C6.37881 26.9172 6.3786 26.9177 6.37822 26.9181C6.1506 27.1678 6 27.5973 6 28.0856V31.0007C6 31.77 6.37216 32.3945 6.82917 32.3945H15.7016C15.8129 32.3945 15.9183 32.3568 16.0142 32.2888C16.4008 32.0149 16.7776 31.6374 17.248 31.6941C20.7288 32.1133 24.1566 33.2986 27.6478 33.4572C27.8556 33.4798 28.0831 33.4996 28.3466 33.5124C28.3496 33.5125 28.3521 33.5146 28.3527 33.5175C28.3534 33.5205 28.356 33.5226 28.3591 33.5226C28.7772 33.5228 29.1975 33.5441 29.6157 33.522C29.6224 33.5213 29.6292 33.5208 29.6359 33.5204C29.6841 33.5174 29.7324 33.5203 29.7806 33.5176C30.1631 33.4966 30.5448 33.465 30.9256 33.423C31.0326 33.4111 31.1405 33.4188 31.2477 33.4291C31.3422 33.4382 31.4304 33.4361 31.4953 33.4183C31.7754 33.3435 32.0555 33.2797 32.3339 33.2192C32.6134 33.171 32.8941 33.1316 33.1719 33.0728C33.2679 33.0528 33.3638 33.0273 33.4609 33.0068C35.4543 32.6918 37.4598 32.6413 39.4898 32.4405C40.4204 32.349 40.8744 31.9437 41.1844 31.346C41.252 31.2157 41.3483 31.0978 41.4062 30.9629C41.4223 30.9254 41.4364 30.8836 41.4482 30.8376C41.5036 30.6879 41.523 30.5648 41.5463 30.4389C41.5807 30.3362 41.6134 30.2353 41.6478 30.1266C41.6617 30.0817 41.6229 30.0406 41.5646 30.0057" fill="url(#paint4_linear)"/>
<path fill-rule="evenodd" clip-rule="evenodd" d="M23.4103 15.3445C23.9754 15.7666 24.2106 16.4066 23.9344 16.7782L21.8174 19.6251C21.5417 19.994 20.8601 19.9557 20.2921 19.5336C19.7236 19.1132 19.4901 18.4698 19.7658 18.101L21.8845 15.2541C22.159 14.8819 22.8418 14.9241 23.4103 15.3445Z" fill="url(#paint5_linear)"/>
<path fill-rule="evenodd" clip-rule="evenodd" d="M25.6668 17.2116C26.2342 17.6337 26.4688 18.2737 26.191 18.6459L24.0756 21.4928C23.8005 21.8616 23.1183 21.8234 22.5515 21.4013C21.9841 20.9809 21.7484 20.3375 22.0251 19.9687L24.1416 17.1217C24.4167 16.749 25.1 16.7912 25.6668 17.2116Z" fill="url(#paint6_linear)"/>
<path fill-rule="evenodd" clip-rule="evenodd" d="M27.8682 19.3291C28.4345 19.7506 28.6685 20.3906 28.3912 20.7628L26.2758 23.6097C25.9991 23.9785 25.3185 23.9403 24.7517 23.5182C24.1854 23.0978 23.9486 22.4544 24.2254 22.0856L26.3429 19.2387C26.6169 18.8665 27.3002 18.9081 27.8682 19.3291Z" fill="url(#paint7_linear)"/>
<defs>
<linearGradient id="paint0_linear" x1="24" y1="0" x2="24" y2="48" gradientUnits="userSpaceOnUse">
<stop stop-color="#4E82EA"/>
<stop offset="1" stop-color="#245BCA"/>
</linearGradient>
<linearGradient id="paint1_linear" x1="6.47705" y1="15" x2="18.3351" y2="42.1472" gradientUnits="userSpaceOnUse">
<stop stop-color="#5EB9E4"/>
<stop offset="1" stop-color="#2F74E6"/>
</linearGradient>
<linearGradient id="paint2_linear" x1="6.50415" y1="17.3203" x2="18.5816" y2="37.8094" gradientUnits="userSpaceOnUse">
<stop stop-color="#2F74E6"/>
<stop offset="1" stop-color="#5EB9E4"/>
</linearGradient>
<linearGradient id="paint3_linear" x1="20.8074" y1="15.0039" x2="24.5237" y2="18.0689" gradientUnits="userSpaceOnUse">
<stop stop-color="#2F74E6"/>
<stop offset="1" stop-color="#5EB9E4"/>
</linearGradient>
<linearGradient id="paint4_linear" x1="23.8253" y1="26.6191" x2="23.8253" y2="33.5321" gradientUnits="userSpaceOnUse">
<stop stop-color="#FFB300"/>
<stop offset="1" stop-color="#FF9100"/>
</linearGradient>
<linearGradient id="paint5_linear" x1="21.8501" y1="15" x2="21.8501" y2="19.878" gradientUnits="userSpaceOnUse">
<stop stop-color="#FFB300"/>
<stop offset="1" stop-color="#FF9100"/>
</linearGradient>
<linearGradient id="paint6_linear" x1="24.1085" y1="16.8672" x2="24.1085" y2="21.7456" gradientUnits="userSpaceOnUse">
<stop stop-color="#FFB300"/>
<stop offset="1" stop-color="#FF9100"/>
</linearGradient>
<linearGradient id="paint7_linear" x1="26.3087" y1="18.9844" x2="26.3087" y2="23.8625" gradientUnits="userSpaceOnUse">
<stop stop-color="#FFB300"/>
<stop offset="1" stop-color="#FF9100"/>
</linearGradient>
</defs>
</svg>
