<svg width="48" height="48" viewBox="0 0 48 48" fill="none" xmlns="http://www.w3.org/2000/svg">
<circle cx="24" cy="24" r="24" fill="url(#paint0_linear)" fill-opacity="0.1"/>
<path d="M23.0956 18.257C26.8407 26.8293 31.4925 30.7722 31.4925 30.7722C31.4925 30.7722 29.6488 31.2857 28.5541 31.5413C26.7004 31.9746 25.265 32.5333 23.4463 31.659C21.1066 30.5342 19.7063 25.9775 19.0024 21.5812C18.0154 15.4338 15.6731 13.5024 14.874 10.103C14.7338 9.50934 15.1546 9.36906 15.6431 9.64712C17.8826 10.9297 21.8005 15.6668 23.0956 18.257Z" fill="url(#paint1_linear)"/>
<path d="M26.3496 32.1465C23.7593 30.1525 22.2012 26.916 21.1791 24.3533C20.7282 23.221 20.0393 21.8808 19.0774 20.6133C19.0774 20.6133 19.6661 28.0884 22.2212 30.6435C24.1576 32.5774 26.3496 32.1465 26.3496 32.1465Z" fill="url(#paint2_linear)"/>
<path d="M37.7651 35.3856C37.3367 34.3686 36.0591 33.2413 35.4679 32.8104C34.0952 31.8034 30.8561 29.7793 27.8275 25.5784C25.9412 22.9606 25.0469 20.443 23.2082 17.3017C19.5759 11.0917 15.8208 8.14572 14.5257 9.13521C13.8343 9.66128 11.2992 12.3241 10.5527 14.6238C9.87132 16.728 9.81371 17.8453 10.4099 19.4335C10.5226 19.7341 10.6604 20.0071 10.8157 20.2601C10.8182 20.2652 10.8182 20.2677 10.8207 20.2727C12.8072 24.4536 12.5116 34.589 12.5116 34.589C12.5116 34.589 12.667 35.075 13.426 35.075C14.185 35.075 14.4255 34.6241 14.4255 34.6241C14.4255 34.6241 14.2476 27.4997 15.2647 24.669C15.5803 25.0523 15.8834 25.4807 16.1615 25.9667C17.9777 29.133 18.376 34.7343 20.5879 36.5806C22.4367 38.1212 25.072 38.4894 27.3841 38.7324C30.3877 39.0455 33.4589 39.301 36.3672 38.309C36.9409 38.1136 37.6323 37.8005 37.8703 37.2043C38.1007 36.6332 37.998 35.9418 37.7651 35.3856ZM29.0174 31.1195C26.9633 31.6857 25.6832 32.2368 23.9522 31.4502C21.1466 30.1726 20.4176 26.648 19.3855 21.0342C18.5739 16.6253 16.5247 13.5867 15.0818 10.1798C14.9791 9.93683 15.3549 9.78402 15.5879 9.90928C18.7818 11.6202 22.5143 17.5772 23.4211 19.5688C27.1812 27.8229 30.9263 30.7187 30.9263 30.7187C30.9263 30.7187 29.546 30.9742 29.0174 31.1195Z" fill="url(#paint3_linear)"/>
<path d="M32.2391 36.3245C32.0186 36.8706 30.3878 36.9833 29.8367 36.9533C28.7395 36.8981 27.1087 36.7904 26.4774 36.347C25.8487 35.9036 26.1518 35.6707 26.525 35.4152C26.8983 35.1596 28.2059 34.9542 29.1979 35.0294C29.5587 35.0544 32.6349 35.345 32.2391 36.3245Z" fill="url(#paint4_linear)"/>
<path d="M37.8955 37.142C37.9481 36.9942 37.9832 36.7913 37.9832 36.7913C37.9832 36.7913 36.916 38.5474 28.945 38.1265C26.4825 37.9962 23.1132 37.5428 21.1442 35.872C19.3381 34.3389 18.3461 28.8578 17.7298 27.2947C15.7884 22.3722 13.1707 22.2695 13.1707 22.2695C13.1707 22.2695 14.9367 23.8227 16.1642 25.962C17.9804 29.1284 18.3135 34.8073 20.5906 36.5759C23.3737 38.7352 27.745 38.883 29.8067 38.9532C34.0653 39.0985 37.3043 38.6876 37.8955 37.142Z" fill="url(#paint5_linear)"/>
<path d="M14.428 34.6215C14.428 34.6215 14.423 34.4011 14.4205 34.0253C14.2652 34.1155 14.1074 34.1957 13.9345 34.2483C13.4611 34.3936 12.925 34.2959 12.5242 34.0078C12.5192 34.3786 12.5142 34.589 12.5142 34.589C12.5142 34.589 12.6695 35.075 13.4285 35.075C14.1875 35.075 14.428 34.6215 14.428 34.6215Z" fill="url(#paint6_linear)"/>
<path d="M13.2883 15.4055C12.8998 16.1413 12.6349 16.936 12.5042 17.7577C12.4591 18.0383 12.4065 18.4141 12.1284 18.4767C11.7927 18.5518 10.8483 17.7652 11.194 15.4606C11.3468 14.4536 11.9606 13.7271 12.7046 13.6018C13.7968 13.4215 13.5964 14.8218 13.2883 15.4055Z" fill="url(#paint7_linear)"/>
<defs>
<linearGradient id="paint0_linear" x1="24" y1="0" x2="24" y2="48" gradientUnits="userSpaceOnUse">
<stop stop-color="#4E82EA"/>
<stop offset="1" stop-color="#245BCA"/>
</linearGradient>
<linearGradient id="paint1_linear" x1="23.1696" y1="9.50977" x2="23.1696" y2="32.1205" gradientUnits="userSpaceOnUse">
<stop stop-color="#FFB300"/>
<stop offset="1" stop-color="#FF9100"/>
</linearGradient>
<linearGradient id="paint2_linear" x1="22.7135" y1="20.6133" x2="22.7135" y2="32.1875" gradientUnits="userSpaceOnUse">
<stop stop-color="#FF9100"/>
<stop offset="1" stop-color="#FFB300"/>
</linearGradient>
<linearGradient id="paint3_linear" x1="9.99927" y1="8.94727" x2="38.1066" y2="38.9121" gradientUnits="userSpaceOnUse">
<stop stop-color="#5EB9E4"/>
<stop offset="1" stop-color="#2F74E6"/>
</linearGradient>
<linearGradient id="paint4_linear" x1="26.1145" y1="35.0137" x2="27.0478" y2="38.3987" gradientUnits="userSpaceOnUse">
<stop stop-color="#5EB9E4"/>
<stop offset="1" stop-color="#2F74E6"/>
</linearGradient>
<linearGradient id="paint5_linear" x1="25.5769" y1="22.2695" x2="25.5769" y2="38.9805" gradientUnits="userSpaceOnUse">
<stop stop-color="#FFB300"/>
<stop offset="1" stop-color="#FF9100"/>
</linearGradient>
<linearGradient id="paint6_linear" x1="13.4711" y1="34.0078" x2="13.4711" y2="35.075" gradientUnits="userSpaceOnUse">
<stop stop-color="#FF9100"/>
<stop offset="1" stop-color="#FFB300"/>
</linearGradient>
<linearGradient id="paint7_linear" x1="11.1191" y1="13.5859" x2="15.0444" y2="15.8002" gradientUnits="userSpaceOnUse">
<stop stop-color="#5EB9E4"/>
<stop offset="1" stop-color="#2F74E6"/>
</linearGradient>
</defs>
</svg>
