<svg width="24" height="24" viewBox="0 0 24 24" fill="none" xmlns="http://www.w3.org/2000/svg">
<g clip-path="url(#clip0)">
<path d="M6.27389 20.5551L6.66169 20.7491C8.27775 21.7186 10.0876 22.1711 11.8975 22.1711C17.5857 22.1711 22.2396 17.5171 22.2396 11.829C22.2396 9.11418 21.1407 6.46399 19.2016 4.52481C17.2625 2.58563 14.6769 1.48682 11.8975 1.48682C6.2093 1.48682 1.55525 6.14078 1.61993 11.8936C1.61993 13.8327 2.20167 15.7073 3.17122 17.3232L3.42975 17.7111L2.39562 21.5248L6.27389 20.5551Z" fill="#00E676"/>
<path d="M20.3005 3.49047C18.1028 1.22817 15.0648 0 11.9621 0C5.36909 0 0.0687079 5.36497 0.133295 11.8934C0.133295 13.9619 0.71504 15.9657 1.68468 17.7756L0.00402832 23.9162L6.27396 22.3003C8.01919 23.2699 9.95828 23.7224 11.8976 23.7224C18.426 23.7224 23.7264 18.3573 23.7264 11.8289C23.7264 8.66159 22.4982 5.68819 20.3006 3.49047H20.3005ZM11.9621 21.7186C10.2169 21.7186 8.47167 21.2662 6.98497 20.3613L6.59717 20.1673L2.84817 21.1369L3.81771 17.4525L3.55918 17.0646C0.71504 12.4754 2.07248 6.3992 6.72644 3.55506C11.3804 0.711012 17.3918 2.06845 20.2359 6.72241C23.08 11.3764 21.7225 17.3878 17.0687 20.2319C15.5819 21.2015 13.7721 21.7185 11.9621 21.7185V21.7186ZM17.6503 14.5438L16.9393 14.2206C16.9393 14.2206 15.9052 13.7681 15.2588 13.4449C15.1941 13.4449 15.1295 13.3802 15.0648 13.3802C14.8709 13.3802 14.7416 13.4449 14.6123 13.5096C14.6123 13.5096 14.5478 13.5742 13.6428 14.6084C13.5781 14.7377 13.4488 14.8023 13.3196 14.8023H13.2549C13.1903 14.8023 13.061 14.7377 12.9964 14.6731L12.6732 14.5438C11.9621 14.2206 11.3158 13.8327 10.7987 13.3156C10.6694 13.1864 10.4754 13.0571 10.3462 12.9278C9.8937 12.4754 9.44122 11.9582 9.1181 11.3765L9.05342 11.2472C8.98883 11.1825 8.98883 11.1179 8.92415 10.9887C8.92415 10.8594 8.92415 10.7301 8.98883 10.6655C8.98883 10.6655 9.24736 10.3422 9.44122 10.1484C9.57058 10.019 9.63516 9.82517 9.76443 9.69591C9.8937 9.50196 9.95838 9.24343 9.8937 9.04948C9.82911 8.72627 9.05342 6.98103 8.85956 6.59324C8.73021 6.39929 8.60103 6.3347 8.40709 6.27002H7.69607C7.56672 6.27002 7.43754 6.3347 7.30818 6.3347L7.2435 6.39929C7.11424 6.46397 6.98497 6.59324 6.8557 6.65782C6.72644 6.78718 6.66176 6.91636 6.53249 7.04571C6.08001 7.62746 5.82148 8.33847 5.82148 9.04948C5.82148 9.56655 5.95075 10.0837 6.14469 10.5362L6.20937 10.7301C6.79112 11.9582 7.56672 13.0571 8.60103 14.0267L8.85956 14.2852C9.05342 14.4791 9.24736 14.6084 9.37663 14.8023C10.7341 15.9658 12.2854 16.8061 14.0306 17.2586C14.2245 17.3232 14.4831 17.3232 14.677 17.3879H15.3233C15.6466 17.3879 16.0344 17.2586 16.293 17.1293C16.4868 17.0001 16.6161 17.0001 16.7454 16.8708L16.8747 16.7414C17.004 16.6122 17.1333 16.5476 17.2625 16.4183C17.3918 16.2891 17.5211 16.1598 17.5857 16.0304C17.715 15.7719 17.7796 15.4487 17.8443 15.1256V14.6731C17.8443 14.6731 17.7796 14.6084 17.6503 14.5438Z" fill="white"/>
</g>
<defs>
<clipPath id="clip0">
<rect width="23.73" height="24" fill="white"/>
</clipPath>
</defs>
</svg>
