<svg width="24" height="24" viewBox="0 0 24 24" fill="none" xmlns="http://www.w3.org/2000/svg">
<path d="M5.45683 21.0022V11.7305L2.5814 9.09993L0.00292969 7.64014V19.366C0.00292969 20.2713 0.736434 21.0022 1.63914 21.0022H5.45683Z" fill="#4285F4"/>
<path d="M18.5461 21.0026H22.3638C23.2693 21.0026 24 20.269 24 19.3664V7.64062L21.0795 9.31264L18.5461 11.7309V21.0026Z" fill="#34A853"/>
<path d="M5.45682 11.7311L5.06555 8.10841L5.45682 4.64111L12.0015 9.54964L18.5461 4.64111L18.9839 7.92121L18.5461 11.7311L12.0015 16.6397L5.45682 11.7311Z" fill="#EA4335"/>
<path d="M18.5461 4.64077V11.7308L24 7.64041V5.45883C24 3.43548 21.6903 2.28203 20.0733 3.49547L18.5461 4.64077Z" fill="#FBBC04"/>
<path d="M0.00292969 7.64045L2.51128 9.52178L5.45683 11.7308V4.64081L3.92964 3.49552C2.30984 2.28198 0.00292969 3.43552 0.00292969 5.45878V7.64035V7.64045Z" fill="#C5221F"/>
</svg>
