<svg width="48" height="48" viewBox="0 0 48 48" fill="none" xmlns="http://www.w3.org/2000/svg">
<circle cx="24" cy="24" r="24" fill="url(#paint0_linear)" fill-opacity="0.1"/>
<path d="M34.8035 31.4664C35.1594 34.6808 33.648 37.4735 29.9517 37.6816C24.9357 37.9116 19.9197 37.9116 14.9036 37.6816C11.2073 37.4735 9.69048 34.6808 10.0519 31.4664C10.3093 29.0295 10.5666 26.5927 10.7528 24.1504C11.0157 20.9031 12.5271 18.2582 15.7853 18.2637H29.081C32.3393 18.2637 33.8507 20.9086 34.1135 24.1504C34.2833 26.5927 34.5461 29.0295 34.8035 31.4664Z" fill="url(#paint1_linear)"/>
<path d="M29.7326 25.9246C29.7162 24.5611 29.6396 23.2031 29.541 22.1845C29.4479 21.166 29.3274 20.4815 29.3274 20.4815C29.3165 20.4103 29.2891 20.3391 29.2562 20.2789V16.8344C29.2562 13.067 26.1897 10.0059 22.4222 10.0059C18.6547 10.0059 15.5881 13.0724 15.5881 16.8344V20.2789C15.5552 20.3446 15.5333 20.4103 15.5169 20.4815C15.5169 20.4815 15.3964 21.1605 15.3033 22.1845C15.2048 23.2031 15.1226 24.5666 15.1117 25.9246C15.1007 26.6037 15.1062 27.2882 15.1172 27.9234C15.1445 28.5586 15.1226 29.1555 15.2157 29.6648C15.3033 30.174 15.4621 30.6012 15.621 30.8969C15.6921 31.0447 15.7688 31.1652 15.8236 31.2418C15.8838 31.324 15.9112 31.3623 15.9112 31.3623C15.9386 31.3952 15.9659 31.428 16.0043 31.4554C16.1905 31.5923 16.4533 31.5485 16.5902 31.3623C16.5902 31.3623 16.6231 31.3185 16.6778 31.2418C16.7326 31.1597 16.8092 31.0447 16.8804 30.8969C17.0392 30.6012 17.198 30.174 17.2857 29.6648C17.3842 29.1555 17.3623 28.5586 17.3842 27.9234C17.3952 27.2882 17.4007 26.6037 17.3897 25.9246C17.3733 24.5611 17.2966 23.2031 17.198 22.1845C17.105 21.166 16.9845 20.4815 16.9845 20.4815C16.9735 20.4103 16.9461 20.3391 16.9133 20.2789V16.8344C16.9133 13.8007 19.383 11.3311 22.4167 11.3311C25.4504 11.3311 27.9201 13.8007 27.9201 16.8344V20.2789C27.8872 20.3446 27.8653 20.4103 27.8489 20.4815C27.8489 20.4815 27.7284 21.1605 27.6353 22.1845C27.5368 23.2031 27.4546 24.5666 27.4437 25.9246C27.4327 26.6037 27.4382 27.2882 27.4491 27.9234C27.4765 28.5586 27.4546 29.1555 27.5477 29.6648C27.6353 30.174 27.7941 30.6012 27.9529 30.8969C28.0241 31.0447 28.1008 31.1652 28.1556 31.2418C28.2158 31.324 28.2432 31.3623 28.2432 31.3623C28.2705 31.3952 28.2979 31.428 28.3363 31.4554C28.5224 31.5923 28.7853 31.5485 28.9222 31.3623C28.9222 31.3623 28.955 31.3185 29.0098 31.2418C29.0646 31.1597 29.1412 31.0447 29.2124 30.8969C29.3712 30.6012 29.53 30.174 29.6176 29.6648C29.7162 29.1555 29.6943 28.5586 29.7162 27.9234C29.7381 27.2882 29.7436 26.6091 29.7326 25.9246Z" fill="url(#paint2_linear)"/>
<path d="M16.2563 23.1156C16.4861 23.1156 16.6724 22.9292 16.6724 22.6994C16.6724 22.4695 16.4861 22.2832 16.2563 22.2832C16.0264 22.2832 15.8401 22.4695 15.8401 22.6994C15.8401 22.9292 16.0264 23.1156 16.2563 23.1156Z" fill="white"/>
<path d="M16.2563 25.1742C16.4861 25.1742 16.6724 24.9878 16.6724 24.758C16.6724 24.5281 16.4861 24.3418 16.2563 24.3418C16.0264 24.3418 15.8401 24.5281 15.8401 24.758C15.8401 24.9878 16.0264 25.1742 16.2563 25.1742Z" fill="white"/>
<path d="M28.5881 23.1156C28.8179 23.1156 29.0042 22.9292 29.0042 22.6994C29.0042 22.4695 28.8179 22.2832 28.5881 22.2832C28.3582 22.2832 28.1719 22.4695 28.1719 22.6994C28.1719 22.9292 28.3582 23.1156 28.5881 23.1156Z" fill="white"/>
<path d="M28.5881 25.1742C28.8179 25.1742 29.0042 24.9878 29.0042 24.758C29.0042 24.5281 28.8179 24.3418 28.5881 24.3418C28.3582 24.3418 28.1719 24.5281 28.1719 24.758C28.1719 24.9878 28.3582 25.1742 28.5881 25.1742Z" fill="white"/>
<path d="M17.1871 26.0176H15.3307C14.7338 26.0176 14.252 26.4995 14.252 27.0964V27.8466C14.252 28.4435 14.7338 28.9253 15.3307 28.9253H17.1871C17.784 28.9253 18.2659 28.4435 18.2659 27.8466V27.0964C18.2659 26.4995 17.7785 26.0176 17.1871 26.0176ZM17.7128 27.8466C17.7128 28.1368 17.4773 28.3723 17.1871 28.3723H16.5355V27.7973C16.5355 27.644 16.4095 27.518 16.2562 27.518C16.1028 27.518 15.9769 27.644 15.9769 27.7973V28.3723H15.3253C15.035 28.3723 14.7996 28.1368 14.7996 27.8466V27.0964C14.7996 26.8061 15.035 26.5707 15.3253 26.5707H17.1816C17.4718 26.5707 17.7073 26.8061 17.7073 27.0964V27.8466H17.7128Z" fill="url(#paint3_linear)"/>
<path d="M29.5191 26.0176H27.6628C27.0659 26.0176 26.584 26.4995 26.584 27.0964V27.8466C26.584 28.4435 27.0659 28.9253 27.6628 28.9253H29.5191C30.116 28.9253 30.5979 28.4435 30.5979 27.8466V27.0964C30.5979 26.4995 30.116 26.0176 29.5191 26.0176ZM30.0448 27.8466C30.0448 28.1368 29.8094 28.3723 29.5191 28.3723H28.8675V27.7973C28.8675 27.644 28.7415 27.518 28.5882 27.518C28.4349 27.518 28.3089 27.644 28.3089 27.7973V28.3723H27.6573C27.3671 28.3723 27.1316 28.1368 27.1316 27.8466V27.0964C27.1316 26.8061 27.3671 26.5707 27.6573 26.5707H29.5137C29.8039 26.5707 30.0394 26.8061 30.0394 27.0964V27.8466H30.0448Z" fill="url(#paint4_linear)"/>
<path d="M37.4101 31.4664C37.1528 29.0295 36.8954 26.5927 36.7092 24.1504C36.4464 20.9031 34.935 18.2582 31.6768 18.2637H29.0647C32.3229 18.2637 33.8343 20.9086 34.0972 24.1504C34.2779 26.5927 34.5407 29.0295 34.7981 31.4664C35.154 34.6808 33.6426 37.4735 29.9463 37.6816C27.8764 37.7747 25.801 37.8295 23.7256 37.8459C26.6717 37.8678 29.6123 37.8131 32.5529 37.6816C36.2547 37.4735 37.7716 34.6808 37.4101 31.4664Z" fill="url(#paint5_linear)"/>
<path d="M22.4222 11.3301C21.7815 11.3301 21.1682 11.4396 20.5987 11.6422C19.1311 12.8962 18.2002 14.7581 18.2002 16.8335V18.2627H19.5309V16.8335C19.5309 14.2488 21.3215 12.0748 23.7255 11.4889C23.3093 11.3848 22.8712 11.3301 22.4222 11.3301Z" fill="url(#paint6_linear)"/>
<path d="M25.0342 10C24.5852 10 24.1526 10.0438 23.731 10.1259C24.9083 10.3559 25.9816 10.8871 26.8632 11.6428C29.0044 12.3985 30.5376 14.441 30.5376 16.8341V18.2633H31.6821C31.7424 18.2633 31.8081 18.2633 31.8683 18.2688V16.8395C31.8683 13.0666 28.8017 10 25.0342 10Z" fill="url(#paint7_linear)"/>
<defs>
<linearGradient id="paint0_linear" x1="24" y1="0" x2="24" y2="48" gradientUnits="userSpaceOnUse">
<stop stop-color="#4E82EA"/>
<stop offset="1" stop-color="#245BCA"/>
</linearGradient>
<linearGradient id="paint1_linear" x1="10" y1="18.2637" x2="27.1451" y2="43.1625" gradientUnits="userSpaceOnUse">
<stop stop-color="#5EB9E4"/>
<stop offset="1" stop-color="#2F74E6"/>
</linearGradient>
<linearGradient id="paint2_linear" x1="22.4219" y1="10.0059" x2="22.4219" y2="31.5354" gradientUnits="userSpaceOnUse">
<stop stop-color="#FFB300"/>
<stop offset="1" stop-color="#FF9100"/>
</linearGradient>
<linearGradient id="paint3_linear" x1="16.2589" y1="26.0176" x2="16.2589" y2="28.9253" gradientUnits="userSpaceOnUse">
<stop stop-color="#FF9100"/>
<stop offset="1" stop-color="#FFB300"/>
</linearGradient>
<linearGradient id="paint4_linear" x1="28.5909" y1="26.0176" x2="28.5909" y2="28.9253" gradientUnits="userSpaceOnUse">
<stop stop-color="#FF9100"/>
<stop offset="1" stop-color="#FFB300"/>
</linearGradient>
<linearGradient id="paint5_linear" x1="23.7256" y1="18.2637" x2="41.6406" y2="32.6454" gradientUnits="userSpaceOnUse">
<stop stop-color="#2F74E6"/>
<stop offset="1" stop-color="#5EB9E4"/>
</linearGradient>
<linearGradient id="paint6_linear" x1="20.9628" y1="11.3301" x2="20.9628" y2="18.2627" gradientUnits="userSpaceOnUse">
<stop stop-color="#FF9100"/>
<stop offset="1" stop-color="#FFB300"/>
</linearGradient>
<linearGradient id="paint7_linear" x1="27.7996" y1="10" x2="27.7996" y2="18.2688" gradientUnits="userSpaceOnUse">
<stop stop-color="#FF9100"/>
<stop offset="1" stop-color="#FFB300"/>
</linearGradient>
</defs>
</svg>
