<svg width="24" height="24" viewBox="0 0 24 24" fill="none" xmlns="http://www.w3.org/2000/svg">
<path d="M13 16L13 14C13 13.7348 13.1054 13.4804 13.2929 13.2929C13.4804 13.1054 13.7348 13 14 13C14.2652 13 14.5196 13.1054 14.7071 13.2929C14.8946 13.4804 15 13.7348 15 14L15 16L19.999 16C19.3778 15.5344 18.8737 14.9305 18.5264 14.2362C18.1791 13.5419 17.9983 12.7763 17.9983 12C17.9983 11.2237 18.1791 10.4581 18.5264 9.76378C18.8737 9.06949 19.3778 8.46561 19.999 8L15 8L15 10C15 10.2652 14.8946 10.5196 14.7071 10.7071C14.5196 10.8946 14.2652 11 14 11C13.7348 11 13.4804 10.8946 13.2929 10.7071C13.1054 10.5196 13 10.2652 13 10L13 8L4.001 8C4.62216 8.46561 5.12635 9.06949 5.47361 9.76378C5.82087 10.4581 6.00167 11.2237 6.00167 12C6.00167 12.7763 5.82087 13.5419 5.47361 14.2362C5.12635 14.9305 4.62216 15.5344 4.001 16L13 16ZM2 6L22 6L22 9.17C21.4145 9.3766 20.9074 9.75974 20.5488 10.2666C20.1901 10.7735 19.9975 11.3791 19.9975 12C19.9975 12.6209 20.1901 13.2265 20.5488 13.7334C20.9074 14.2403 21.4145 14.6234 22 14.83L22 18L2 18L2 14.83C2.58553 14.6234 3.09257 14.2403 3.45121 13.7334C3.80985 13.2265 4.00245 12.6209 4.00245 12C4.00245 11.3791 3.80985 10.7735 3.45121 10.2666C3.09257 9.75974 2.58553 9.3766 2 9.17L2 6Z" fill="url(#paint0_linear)"/>
<defs>
<linearGradient id="paint0_linear" x1="22.0052" y1="6.28571" x2="9.58163" y2="23.9353" gradientUnits="userSpaceOnUse">
<stop stop-color="#5EB9E4"/>
<stop offset="1" stop-color="#2F74E6"/>
</linearGradient>
</defs>
</svg>
